<?xml version="1.0" standalone="no"?><!DOCTYPE svg PUBLIC "-//W3C//DTD SVG 1.1//EN" "http://www.w3.org/Graphics/SVG/1.1/DTD/svg11.dtd"><svg xmlns:xlink="http://www.w3.org/1999/xlink" version="1.1" style="font-family:'lucida grande', 'lucida sans unicode', arial, helvetica, sans-serif;font-size:12px;" xmlns="http://www.w3.org/2000/svg" width="600" height="400"><desc>Created with Highcharts 4.2.7</desc><defs><clipPath id="highcharts-4"><rect x="1" y="1" width="578" height="332"></rect></clipPath></defs><rect x="10" y="10" width="580" height="334" fill="#ffffff"></rect><rect x="10" y="10" width="580" height="334" stroke="#026FC1" stroke-width="2" fill="none"></rect><g class="highcharts-series-group"><g class="highcharts-series highcharts-series-0" transform="translate(10,10) scale(1 1)"><path fill="#50B432" d="M 289.9700600390568 30.0000030489839 A 147 147 0 0 1 435.8346569734358 195.4730296768102 L 290 177 A 0 0 0 0 0 290 177 Z" stroke="#FFFFFF" stroke-width="1" stroke-linejoin="round" transform="translate(0,0)"></path><path fill="#ED561B" d="M 435.8161110295154 195.61885507296378 A 147 147 0 0 1 430.6071058453924 219.87938649027782 L 290 177 A 0 0 0 0 0 290 177 Z" stroke="#FFFFFF" stroke-width="1" stroke-linejoin="round" transform="translate(0,0)"></path><path fill="#DDDF00" d="M 430.5641561625016 220.01997213299722 A 147 147 0 0 1 408.25828312875683 264.3153965314182 L 290 177 A 0 0 0 0 0 290 177 Z" stroke="#FFFFFF" stroke-width="1" stroke-linejoin="round" transform="translate(0,0)"></path><path fill="#24CBE5" d="M 408.1709086176413 264.4336111371426 A 147 147 0 1 1 197.52297076451197 62.73277344846994 L 290 177 A 0 0 0 1 0 290 177 Z" stroke="#FFFFFF" stroke-width="1" stroke-linejoin="round" transform="translate(0,0)"></path><path fill="#64e572" d="M 197.63728421052977 62.64035356825579 A 147 147 0 0 1 289.7958199491035 30.00014180106561 L 290 177 A 0 0 0 0 0 290 177 Z" stroke="#FFFFFF" stroke-width="1" stroke-linejoin="round" transform="translate(0,0)"></path></g><g class="highcharts-markers highcharts-series-0" transform="translate(10,10) scale(1 1)"></g></g><g class="highcharts-data-labels highcharts-series-0" transform="translate(10,10) scale(1 1)" opacity="1"><path fill="none" d="M 427.8689980297322 60.06057395995559 C 422.8689980297322 60.06057395995559 416.8636195877104 65.34597174707625 408.60622422993043 72.61339370436714 L 400.3488288721505 79.88081566165803" stroke="#50B432" stroke-width="1"></path><path fill="none" d="M 468.02727729374044 214.29023078924357 C 463.02727729374044 214.29023078924357 455.206835382159 212.60479662927773 444.4537277537344 210.28732465932475 L 433.70062012530985 207.96985268937178" stroke="#ED561B" stroke-width="1"></path><path fill="none" d="M 453.0478768924736 256.68606283272817 C 448.0478768924736 256.68606283272817 440.90447002727706 253.08443287418675 431.0822855876318 248.13219168119235 L 421.2601011479866 243.17995048819796" stroke="#DDDF00" stroke-width="1"></path><path fill="none" d="M 162.52682019097432 304.7862286299508 C 167.52682019097432 304.7862286299508 173.06233114279473 299.0105798783147 180.67365870154774 291.0690628448149 L 188.28498626030074 283.1275458113151" stroke="#24CBE5" stroke-width="1"></path><path fill="none" d="M 226.0342563306559 10.110692153388083 C 231.0342563306559 10.110692153388083 233.6993746885923 17.65371171707676 237.3639124307549 28.025363617148685 L 241.02845017291753 38.39701551722061" stroke="#64e572" stroke-width="1"></path><g style="cursor:pointer;" transform="translate(433,50)"><text x="5" style="font-size:10px;font-weight:bold;font-family:'arial', sans-serif;color:#000;text-shadow:none;fill:#000;text-rendering:geometricprecision;" y="15"><tspan>Cryptocurrency</tspan></text></g><g style="cursor:pointer;" transform="translate(473,204)"><text x="5" style="font-size:10px;font-weight:bold;font-family:'arial', sans-serif;color:#000;text-shadow:none;fill:#000;text-rendering:geometricprecision;" y="15"><tspan>SIP</tspan></text></g><g style="cursor:pointer;" transform="translate(458,247)"><text x="5" style="font-size:10px;font-weight:bold;font-family:'arial', sans-serif;color:#000;text-shadow:none;fill:#000;text-rendering:geometricprecision;" y="15"><tspan>Mutual Funds</tspan></text></g><g style="cursor:pointer;" transform="translate(114,295)"><text x="5" style="font-size:10px;font-weight:bold;font-family:'arial', sans-serif;color:#000;text-shadow:none;fill:#000;text-rendering:geometricprecision;" y="15"><tspan>Stocks</tspan></text></g><g style="cursor:pointer;" transform="translate(161,0)"><text x="5" style="font-size:10px;font-weight:bold;font-family:'arial', sans-serif;color:#000;text-shadow:none;fill:#000;text-rendering:geometricprecision;" y="15"><tspan>US Stocks</tspan></text></g></g><g class="highcharts-legend" transform="translate(60,356)"><g><g><g class="highcharts-legend-item" transform="translate(8,3)"><text x="21" style="color:#333;font-size:9pt;font-weight:normal;cursor:pointer;font-family:'lucida grande','lucida sans unicode',arial,helvetica,sans-serif;text-transform:none;fill:#333;" text-anchor="start" y="15">Cryptocurrency</text><rect x="0" y="4" width="16" height="12" fill="#50B432"></rect></g><g class="highcharts-legend-item" transform="translate(138.78789520263672,3)"><text x="21" y="15" style="color:#333;font-size:9pt;font-weight:normal;cursor:pointer;font-family:'lucida grande','lucida sans unicode',arial,helvetica,sans-serif;text-transform:none;fill:#333;" text-anchor="start">SIP</text><rect x="0" y="4" width="16" height="12" fill="#ED561B"></rect></g><g class="highcharts-legend-item" transform="translate(196.90781784057617,3)"><text x="21" y="15" style="color:#333;font-size:9pt;font-weight:normal;cursor:pointer;font-family:'lucida grande','lucida sans unicode',arial,helvetica,sans-serif;text-transform:none;fill:#333;" text-anchor="start"><tspan>Mutual Funds</tspan></text><rect x="0" y="4" width="16" height="12" fill="#DDDF00"></rect></g><g class="highcharts-legend-item" transform="translate(316.520320892334,3)"><text x="21" y="15" style="color:#333;font-size:9pt;font-weight:normal;cursor:pointer;font-family:'lucida grande','lucida sans unicode',arial,helvetica,sans-serif;text-transform:none;fill:#333;" text-anchor="start">Stocks</text><rect x="0" y="4" width="16" height="12" fill="#24CBE5"></rect></g><g class="highcharts-legend-item" transform="translate(395.12032318115234,3)"><text x="21" y="15" style="color:#333;font-size:9pt;font-weight:normal;cursor:pointer;font-family:'lucida grande','lucida sans unicode',arial,helvetica,sans-serif;text-transform:none;fill:#333;" text-anchor="start"><tspan>US Stocks</tspan></text><rect x="0" y="4" width="16" height="12" fill="#64e572"></rect></g></g></g></g><g class="highcharts-tooltip" display="none" style="cursor:default;padding:0;pointer-events:none;white-space:nowrap;" transform="translate(0,0)"><path fill="none" d="M 3.5 0.5 L 13.5 0.5 C 16.5 0.5 16.5 0.5 16.5 3.5 L 16.5 13.5 C 16.5 16.5 16.5 16.5 13.5 16.5 L 3.5 16.5 C 0.5 16.5 0.5 16.5 0.5 13.5 L 0.5 3.5 C 0.5 0.5 0.5 0.5 3.5 0.5"  stroke="black" stroke-opacity="0.049999999999999996" stroke-width="5" transform="translate(1, 1)"></path><path fill="none" d="M 3.5 0.5 L 13.5 0.5 C 16.5 0.5 16.5 0.5 16.5 3.5 L 16.5 13.5 C 16.5 16.5 16.5 16.5 13.5 16.5 L 3.5 16.5 C 0.5 16.5 0.5 16.5 0.5 13.5 L 0.5 3.5 C 0.5 0.5 0.5 0.5 3.5 0.5"  stroke="black" stroke-opacity="0.09999999999999999" stroke-width="3" transform="translate(1, 1)"></path><path fill="none" d="M 3.5 0.5 L 13.5 0.5 C 16.5 0.5 16.5 0.5 16.5 3.5 L 16.5 13.5 C 16.5 16.5 16.5 16.5 13.5 16.5 L 3.5 16.5 C 0.5 16.5 0.5 16.5 0.5 13.5 L 0.5 3.5 C 0.5 0.5 0.5 0.5 3.5 0.5"  stroke="black" stroke-opacity="0.15" stroke-width="1" transform="translate(1, 1)"></path><path fill="rgb(249, 249, 249)" fill-opacity=" .85" d="M 3.5 0.5 L 13.5 0.5 C 16.5 0.5 16.5 0.5 16.5 3.5 L 16.5 13.5 C 16.5 16.5 16.5 16.5 13.5 16.5 L 3.5 16.5 C 0.5 16.5 0.5 16.5 0.5 13.5 L 0.5 3.5 C 0.5 0.5 0.5 0.5 3.5 0.5"></path><text x="8" style="font-size:12px;color:#000000;fill:#000000;" y="20"></text></g><text x="590" text-anchor="end" style="cursor:pointer;color:#909090;font-size:9px;fill:#909090;" y="395">meta-chart.com</text></svg>